{
    "asset" : {
        "generator" : "Khronos glTF Blender I/O v1.2.75",
        "version" : "2.0"
    },
    "scene" : 0,
    "scenes" : [
        {
            "name" : "Scene",
            "nodes" : [
                1
            ]
        }
    ],
    "nodes" : [
        {
            "mesh" : 0,
            "name" : "Eye"
        },
        {
            "children" : [
                0
            ],
            "mesh" : 1,
            "name" : "Body",
            "rotation" : [
                0.7071067690849304,
                0,
                0,
                0.7071067690849304
            ],
            "scale" : [
                0.10000000149011612,
                0.10000000149011612,
                0.10000000149011612
            ],
            "translation" : [
                0,
                -0.8999999761581421,
                0
            ]
        }
    ],
    "meshes" : [
        {
            "name" : "eye",
            "primitives" : [
                {
                    "attributes" : {
                        "POSITION" : 0,
                        "NORMAL" : 1,
                        "TEXCOORD_0" : 2
                    },
                    "indices" : 3
                }
            ]
        },
        {
            "name" : "body",
            "primitives" : [
                {
                    "attributes" : {
                        "POSITION" : 4,
                        "NORMAL" : 5,
                        "TEXCOORD_0" : 6
                    },
                    "indices" : 7
                }
            ]
        }
    ],
    "accessors" : [
        {
            "bufferView" : 0,
            "componentType" : 5126,
            "count" : 96,
            "max" : [
                0.4412333369255066,
                1.4223333597183228,
                -16.077049255371094
            ],
            "min" : [
                -0.4412333369255066,
                1.1847666501998901,
                -16.35634994506836
            ],
            "type" : "VEC3"
        },
        {
            "bufferView" : 1,
            "componentType" : 5126,
            "count" : 96,
            "type" : "VEC3"
        },
        {
            "bufferView" : 2,
            "componentType" : 5126,
            "count" : 96,
            "type" : "VEC2"
        },
        {
            "bufferView" : 3,
            "componentType" : 5123,
            "count" : 516,
            "type" : "SCALAR"
        },
        {
            "bufferView" : 4,
            "componentType" : 5126,
            "count" : 14517,
            "max" : [
                5.6626996994018555,
                3.772366523742676,
                0.0036497116088867188
            ],
            "min" : [
                -5.6626996994018555,
                -0.9997334480285645,
                -17.300350189208984
            ],
            "type" : "VEC3"
        },
        {
            "bufferView" : 5,
            "componentType" : 5126,
            "count" : 14517,
            "type" : "VEC3"
        },
        {
            "bufferView" : 6,
            "componentType" : 5126,
            "count" : 14517,
            "type" : "VEC2"
        },
        {
            "bufferView" : 7,
            "componentType" : 5123,
            "count" : 80268,
            "type" : "SCALAR"
        }
    ],
    "bufferViews" : [
        {
            "buffer" : 0,
            "byteLength" : 1152,
            "byteOffset" : 0
        },
        {
            "buffer" : 0,
            "byteLength" : 1152,
            "byteOffset" : 1152
        },
        {
            "buffer" : 0,
            "byteLength" : 768,
            "byteOffset" : 2304
        },
        {
            "buffer" : 0,
            "byteLength" : 1032,
            "byteOffset" : 3072
        },
        {
            "buffer" : 0,
            "byteLength" : 174204,
            "byteOffset" : 4104
        },
        {
            "buffer" : 0,
            "byteLength" : 174204,
            "byteOffset" : 178308
        },
        {
            "buffer" : 0,
            "byteLength" : 116136,
            "byteOffset" : 352512
        },
        {
            "buffer" : 0,
            "byteLength" : 160536,
            "byteOffset" : 468648
        }
    ],
    "buffers" : [
        {
            "byteLength" : 629184,
            "uri" : "man.bin"
        }
    ]
}
